<?xml version="1.0" encoding="UTF-8"?>
<svg width="16px" height="16px" viewBox="0 0 16 16" version="1.1" xmlns="http://www.w3.org/2000/svg" xmlns:xlink="http://www.w3.org/1999/xlink">
    <title>CD016B58-ECBE-4F96-A30F-2832C5BA4FD1</title>
    <g id="New-for-Web---Tappable" stroke="none" stroke-width="1" fill="none" fill-rule="evenodd">
        <g id="01-Home-Loan-Mobile-Number_Empty" transform="translate(-792.000000, -196.000000)">
            <g id="Group-5" transform="translate(793.000000, 108.000000)">
                <g id="Group-2" transform="translate(0.000000, 87.000000)">
                    <g id="Group-3" transform="translate(0.000000, 2.000000)">
                        <path d="M7,0 C3.136,0 0,3.136 0,7 C0,10.864 3.136,14 7,14 C10.864,14 14,10.864 14,7 C14,3.136 10.864,0 7,0 Z" id="🔹Icon-Color" stroke="#D90368"></path>
                        <path d="M9.90228563,5.18209097 C10.1536461,4.93930301 10.5579288,4.93930301 10.8092893,5.18209097 C11.0635702,5.42769972 11.0635702,5.82700562 10.8092893,6.07261437 L10.8092893,6.07261437 L6.93300472,9.81668411 C6.68664809,10.0609008 6.27632131,10.0609008 6.0247495,9.81790874 L6.0247495,9.81790874 L4.19071067,8.04641905 C3.93642978,7.80081029 3.93642978,7.4015044 4.19071067,7.15589564 C4.44207117,6.91310769 4.84635387,6.91310769 5.09754625,7.15573354 L5.09754625,7.15573354 L6.48096154,8.48648629 Z" id="Path" fill="#D90368" fill-rule="nonzero" opacity="0.800000012"></path>
                    </g>
                </g>
            </g>
        </g>
    </g>
</svg>